<svg width="2174" height="1240" viewBox="0 0 2174 1240" fill="none" xmlns="http://www.w3.org/2000/svg">
<rect width="2174" height="1240" fill="black"/>
<path d="M842.692 251.199C794.373 299.518 761.468 361.081 748.138 428.101C734.808 495.122 741.65 564.59 767.801 627.721C793.951 690.853 838.235 744.812 895.053 782.776C951.87 820.739 1018.67 841.002 1087 841.001C1155.34 841.001 1222.13 820.737 1278.95 782.773C1335.77 744.809 1380.05 690.849 1406.2 627.717C1432.35 564.585 1439.19 495.117 1425.86 428.097C1412.53 361.077 1379.62 299.515 1331.3 251.196C1299.22 219.112 1261.13 193.663 1219.22 176.299C1177.3 158.936 1132.37 150 1087 150C1041.63 150 996.698 158.937 954.78 176.301C912.862 193.665 874.774 219.115 842.692 251.199ZM1209.31 617.813C1185.12 642.003 1154.29 658.476 1120.74 665.15C1087.19 671.823 1052.41 668.397 1020.8 655.304C989.197 642.212 962.183 620.041 943.178 591.596C924.172 563.151 914.028 529.709 914.028 495.498C914.029 461.288 924.174 427.846 943.18 399.401C962.187 370.956 989.201 348.787 1020.81 335.695C1052.41 322.603 1087.19 319.178 1120.75 325.852C1154.3 332.527 1185.12 349.001 1209.31 373.191C1225.37 389.253 1238.11 408.322 1246.81 429.308C1255.5 450.294 1259.97 472.787 1259.97 495.503C1259.97 518.218 1255.5 540.711 1246.8 561.697C1238.11 582.683 1225.37 601.752 1209.31 617.813Z" fill="url(#paint0_linear_1726_10)"/>
<path style="mix-blend-mode:multiply" opacity="0.32" d="M842.691 495.814L964.687 617.81C932.249 585.372 914.025 541.377 914.024 495.503C914.024 449.628 932.246 405.633 964.683 373.194L964.687 373.191L842.691 251.195L842.688 251.199C810.251 283.637 792.029 327.633 792.029 373.507C792.03 419.381 810.253 463.376 842.691 495.814Z" fill="url(#paint1_linear_1726_10)"/>
<path style="mix-blend-mode:multiply" opacity="0.32" d="M1331.31 495.19L1209.31 373.195C1241.75 405.632 1259.98 449.628 1259.98 495.502C1259.98 541.376 1241.75 585.372 1209.32 617.81L1209.31 617.814L1331.31 739.809L1331.31 739.806C1363.75 707.367 1381.97 663.371 1381.97 617.497C1381.97 571.623 1363.75 527.628 1331.31 495.19Z" fill="url(#paint2_linear_1726_10)"/>
<path style="mix-blend-mode:multiply" opacity="0.28" d="M842.691 495.814L964.687 617.81C932.249 585.372 914.025 541.377 914.024 495.503C914.024 449.628 932.246 405.633 964.683 373.194L964.687 373.191L842.691 251.195L842.688 251.199C810.251 283.637 792.029 327.633 792.029 373.507C792.03 419.381 810.253 463.376 842.691 495.814Z" fill="url(#paint3_linear_1726_10)"/>
<path style="mix-blend-mode:multiply" opacity="0.28" d="M1331.31 495.19L1209.31 373.195C1241.75 405.632 1259.98 449.628 1259.98 495.502C1259.98 541.376 1241.75 585.372 1209.32 617.81L1209.31 617.814L1331.31 739.809L1331.31 739.806C1363.75 707.367 1381.97 663.371 1381.97 617.497C1381.97 571.623 1363.75 527.628 1331.31 495.19Z" fill="url(#paint4_linear_1726_10)"/>
<path d="M156.136 978.001V965.911H228.182V978.001H199.136V1059H185.136V978.001H156.136ZM235.761 1059V989.183H248.898V1000.27H249.625C250.898 996.517 253.14 993.562 256.352 991.411C259.595 989.229 263.261 988.138 267.352 988.138C268.201 988.138 269.201 988.168 270.352 988.229C271.534 988.289 272.458 988.365 273.125 988.456V1001.46C272.58 1001.3 271.61 1001.14 270.216 1000.96C268.822 1000.74 267.428 1000.64 266.034 1000.64C262.822 1000.64 259.958 1001.32 257.443 1002.68C254.958 1004.02 252.989 1005.88 251.534 1008.27C250.08 1010.64 249.352 1013.33 249.352 1016.37V1059H235.761ZM329.114 1030.05V989.183H342.75V1059H329.386V1046.91H328.659C327.053 1050.64 324.477 1053.74 320.932 1056.23C317.417 1058.68 313.038 1059.91 307.795 1059.91C303.311 1059.91 299.341 1058.93 295.886 1056.96C292.462 1054.96 289.765 1052 287.795 1048.09C285.856 1044.18 284.886 1039.35 284.886 1033.59V989.183H298.477V1031.96C298.477 1036.71 299.795 1040.5 302.432 1043.32C305.068 1046.14 308.492 1047.55 312.705 1047.55C315.25 1047.55 317.78 1046.91 320.295 1045.64C322.841 1044.37 324.947 1042.44 326.614 1039.87C328.311 1037.29 329.144 1034.02 329.114 1030.05ZM413.33 1006.23L401.011 1008.41C400.496 1006.83 399.678 1005.33 398.557 1003.91C397.466 1002.49 395.981 1001.32 394.102 1000.41C392.223 999.501 389.875 999.047 387.057 999.047C383.208 999.047 379.996 999.911 377.42 1001.64C374.845 1003.33 373.557 1005.53 373.557 1008.23C373.557 1010.56 374.42 1012.44 376.148 1013.87C377.875 1015.29 380.663 1016.46 384.511 1017.37L395.602 1019.91C402.027 1021.4 406.814 1023.68 409.966 1026.77C413.117 1029.87 414.693 1033.88 414.693 1038.82C414.693 1043 413.481 1046.73 411.057 1050C408.663 1053.24 405.314 1055.79 401.011 1057.64C396.739 1059.49 391.784 1060.41 386.148 1060.41C378.33 1060.41 371.951 1058.74 367.011 1055.41C362.072 1052.05 359.042 1047.27 357.92 1041.09L371.057 1039.09C371.875 1042.52 373.557 1045.11 376.102 1046.87C378.648 1048.59 381.966 1049.46 386.057 1049.46C390.511 1049.46 394.072 1048.53 396.739 1046.68C399.405 1044.8 400.739 1042.52 400.739 1039.82C400.739 1037.64 399.92 1035.8 398.284 1034.32C396.678 1032.83 394.208 1031.71 390.875 1030.96L379.057 1028.37C372.542 1026.88 367.723 1024.52 364.602 1021.27C361.511 1018.03 359.966 1013.93 359.966 1008.96C359.966 1004.83 361.117 1001.23 363.42 998.138C365.723 995.047 368.905 992.638 372.966 990.911C377.027 989.153 381.678 988.274 386.92 988.274C394.466 988.274 400.405 989.911 404.739 993.183C409.072 996.426 411.936 1000.77 413.33 1006.23ZM462.227 989.183V1000.09H424.091V989.183H462.227ZM434.318 972.456H447.909V1038.5C447.909 1041.14 448.303 1043.12 449.091 1044.46C449.879 1045.76 450.894 1046.65 452.136 1047.14C453.409 1047.59 454.788 1047.82 456.273 1047.82C457.364 1047.82 458.318 1047.74 459.136 1047.59C459.955 1047.44 460.591 1047.32 461.045 1047.23L463.5 1058.46C462.712 1058.76 461.591 1059.06 460.136 1059.37C458.682 1059.7 456.864 1059.88 454.682 1059.91C451.106 1059.97 447.773 1059.33 444.682 1058C441.591 1056.67 439.091 1054.61 437.182 1051.82C435.273 1049.03 434.318 1045.53 434.318 1041.32V972.456ZM486.216 1059.87C483.731 1059.87 481.595 1058.99 479.807 1057.23C478.019 1055.44 477.125 1053.29 477.125 1050.77C477.125 1048.29 478.019 1046.17 479.807 1044.41C481.595 1042.62 483.731 1041.73 486.216 1041.73C488.701 1041.73 490.837 1042.62 492.625 1044.41C494.413 1046.17 495.307 1048.29 495.307 1050.77C495.307 1052.44 494.883 1053.97 494.034 1055.37C493.216 1056.73 492.125 1057.82 490.761 1058.64C489.398 1059.46 487.883 1059.87 486.216 1059.87ZM1297.73 1059V965.911H1311.77V1010.37H1312.91L1351.95 965.911H1369.64L1332.09 1007.82L1369.77 1059H1352.86L1322.77 1017.41L1311.77 1030.05V1059H1297.73ZM1395.23 1017.55V1059H1381.64V989.183H1394.68V1000.55H1395.55C1397.15 996.85 1399.67 993.88 1403.09 991.638C1406.55 989.395 1410.89 988.274 1416.14 988.274C1420.89 988.274 1425.06 989.274 1428.64 991.274C1432.21 993.244 1434.98 996.183 1436.95 1000.09C1438.92 1004 1439.91 1008.83 1439.91 1014.59V1059H1426.32V1016.23C1426.32 1011.17 1425 1007.21 1422.36 1004.37C1419.73 1001.49 1416.11 1000.05 1411.5 1000.05C1408.35 1000.05 1405.55 1000.73 1403.09 1002.09C1400.67 1003.46 1398.74 1005.46 1397.32 1008.09C1395.92 1010.7 1395.23 1013.85 1395.23 1017.55ZM1487.55 1060.41C1481 1060.41 1475.29 1058.91 1470.41 1055.91C1465.53 1052.91 1461.74 1048.71 1459.05 1043.32C1456.35 1037.93 1455 1031.62 1455 1024.41C1455 1017.17 1456.35 1010.83 1459.05 1005.41C1461.74 999.986 1465.53 995.774 1470.41 992.774C1475.29 989.774 1481 988.274 1487.55 988.274C1494.09 988.274 1499.8 989.774 1504.68 992.774C1509.56 995.774 1513.35 999.986 1516.05 1005.41C1518.74 1010.83 1520.09 1017.17 1520.09 1024.41C1520.09 1031.62 1518.74 1037.93 1516.05 1043.32C1513.35 1048.71 1509.56 1052.91 1504.68 1055.91C1499.8 1058.91 1494.09 1060.41 1487.55 1060.41ZM1487.59 1049C1491.83 1049 1495.35 1047.88 1498.14 1045.64C1500.92 1043.4 1502.98 1040.41 1504.32 1036.68C1505.68 1032.96 1506.36 1028.85 1506.36 1024.37C1506.36 1019.91 1505.68 1015.82 1504.32 1012.09C1502.98 1008.33 1500.92 1005.32 1498.14 1003.05C1495.35 1000.77 1491.83 999.638 1487.59 999.638C1483.32 999.638 1479.77 1000.77 1476.95 1003.05C1474.17 1005.32 1472.09 1008.33 1470.73 1012.09C1469.39 1015.82 1468.73 1019.91 1468.73 1024.37C1468.73 1028.85 1469.39 1032.96 1470.73 1036.68C1472.09 1040.41 1474.17 1043.4 1476.95 1045.64C1479.77 1047.88 1483.32 1049 1487.59 1049ZM1548.27 1059L1527.73 989.183H1541.77L1555.45 1040.46H1556.14L1569.86 989.183H1583.91L1597.55 1040.23H1598.23L1611.82 989.183H1625.86L1605.36 1059H1591.5L1577.32 1008.59H1576.27L1562.09 1059H1548.27ZM1652.35 965.911V1059H1638.76V965.911H1652.35ZM1700.73 1060.41C1693.85 1060.41 1687.92 1058.94 1682.95 1056C1678.02 1053.03 1674.2 1048.87 1671.5 1043.5C1668.83 1038.11 1667.5 1031.79 1667.5 1024.55C1667.5 1017.4 1668.83 1011.09 1671.5 1005.64C1674.2 1000.18 1677.95 995.926 1682.77 992.865C1687.62 989.804 1693.29 988.274 1699.77 988.274C1703.71 988.274 1707.53 988.926 1711.23 990.229C1714.92 991.532 1718.24 993.577 1721.18 996.365C1724.12 999.153 1726.44 1002.77 1728.14 1007.23C1729.83 1011.65 1730.68 1017.03 1730.68 1023.37V1028.18H1675.18V1018H1717.36C1717.36 1014.43 1716.64 1011.26 1715.18 1008.5C1713.73 1005.71 1711.68 1003.52 1709.05 1001.91C1706.44 1000.3 1703.38 999.501 1699.86 999.501C1696.05 999.501 1692.71 1000.44 1689.86 1002.32C1687.05 1004.17 1684.86 1006.59 1683.32 1009.59C1681.8 1012.56 1681.05 1015.79 1681.05 1019.27V1027.23C1681.05 1031.9 1681.86 1035.87 1683.5 1039.14C1685.17 1042.41 1687.48 1044.91 1690.45 1046.64C1693.42 1048.33 1696.89 1049.18 1700.86 1049.18C1703.44 1049.18 1705.79 1048.82 1707.91 1048.09C1710.03 1047.33 1711.86 1046.21 1713.41 1044.73C1714.95 1043.24 1716.14 1041.41 1716.95 1039.23L1729.82 1041.55C1728.79 1045.33 1726.94 1048.65 1724.27 1051.5C1721.64 1054.32 1718.32 1056.52 1714.32 1058.09C1710.35 1059.64 1705.82 1060.41 1700.73 1060.41ZM1771.9 1060.37C1766.26 1060.37 1761.23 1058.93 1756.81 1056.05C1752.41 1053.14 1748.96 1049 1746.44 1043.64C1743.96 1038.24 1742.72 1031.77 1742.72 1024.23C1742.72 1016.68 1743.97 1010.23 1746.49 1004.87C1749.03 999.501 1752.52 995.395 1756.94 992.547C1761.37 989.698 1766.38 988.274 1771.99 988.274C1776.32 988.274 1779.81 989.001 1782.44 990.456C1785.11 991.88 1787.17 993.547 1788.62 995.456C1790.11 997.365 1791.26 999.047 1792.08 1000.5H1792.9V965.911H1806.49V1059H1793.22V1048.14H1792.08C1791.26 1049.62 1790.08 1051.32 1788.53 1053.23C1787.02 1055.14 1784.93 1056.8 1782.26 1058.23C1779.59 1059.65 1776.14 1060.37 1771.9 1060.37ZM1774.9 1048.77C1778.81 1048.77 1782.11 1047.74 1784.81 1045.68C1787.53 1043.59 1789.59 1040.7 1790.99 1037C1792.41 1033.3 1793.12 1029 1793.12 1024.09C1793.12 1019.24 1792.43 1015 1791.03 1011.37C1789.64 1007.73 1787.59 1004.9 1784.9 1002.87C1782.2 1000.83 1778.87 999.82 1774.9 999.82C1770.81 999.82 1767.4 1000.88 1764.67 1003C1761.94 1005.12 1759.88 1008.02 1758.49 1011.68C1757.13 1015.35 1756.44 1019.49 1756.44 1024.09C1756.44 1028.76 1757.14 1032.96 1758.53 1036.68C1759.93 1040.41 1761.99 1043.37 1764.72 1045.55C1767.47 1047.7 1770.87 1048.77 1774.9 1048.77ZM1855.16 1086.64C1849.61 1086.64 1844.84 1085.91 1840.84 1084.46C1836.87 1083 1833.63 1081.08 1831.11 1078.68C1828.6 1076.29 1826.72 1073.67 1825.48 1070.82L1837.16 1066C1837.98 1067.33 1839.07 1068.74 1840.43 1070.23C1841.83 1071.74 1843.7 1073.03 1846.07 1074.09C1848.46 1075.15 1851.54 1075.68 1855.3 1075.68C1860.45 1075.68 1864.7 1074.43 1868.07 1071.91C1871.43 1069.43 1873.11 1065.46 1873.11 1060V1046.27H1872.25C1871.43 1047.76 1870.25 1049.41 1868.7 1051.23C1867.19 1053.05 1865.1 1054.62 1862.43 1055.96C1859.77 1057.29 1856.3 1057.96 1852.02 1057.96C1846.51 1057.96 1841.54 1056.67 1837.11 1054.09C1832.72 1051.49 1829.23 1047.65 1826.66 1042.59C1824.11 1037.5 1822.84 1031.24 1822.84 1023.82C1822.84 1016.4 1824.1 1010.03 1826.61 1004.73C1829.16 999.426 1832.64 995.365 1837.07 992.547C1841.49 989.698 1846.51 988.274 1852.11 988.274C1856.45 988.274 1859.95 989.001 1862.61 990.456C1865.28 991.88 1867.36 993.547 1868.84 995.456C1870.36 997.365 1871.52 999.047 1872.34 1000.5H1873.34V989.183H1886.66V1060.55C1886.66 1066.55 1885.27 1071.47 1882.48 1075.32C1879.69 1079.17 1875.92 1082.02 1871.16 1083.87C1866.43 1085.71 1861.1 1086.64 1855.16 1086.64ZM1855.02 1046.68C1858.93 1046.68 1862.23 1045.77 1864.93 1043.96C1867.66 1042.11 1869.72 1039.47 1871.11 1036.05C1872.54 1032.59 1873.25 1028.46 1873.25 1023.64C1873.25 1018.94 1872.55 1014.8 1871.16 1011.23C1869.77 1007.65 1867.72 1004.87 1865.02 1002.87C1862.33 1000.83 1858.99 999.82 1855.02 999.82C1850.93 999.82 1847.52 1000.88 1844.8 1003C1842.07 1005.09 1840.01 1007.94 1838.61 1011.55C1837.25 1015.15 1836.57 1019.18 1836.57 1023.64C1836.57 1028.21 1837.27 1032.23 1838.66 1035.68C1840.05 1039.14 1842.11 1041.83 1844.84 1043.77C1847.6 1045.71 1850.99 1046.68 1855.02 1046.68ZM1934.98 1060.41C1928.1 1060.41 1922.17 1058.94 1917.2 1056C1912.27 1053.03 1908.45 1048.87 1905.75 1043.5C1903.08 1038.11 1901.75 1031.79 1901.75 1024.55C1901.75 1017.4 1903.08 1011.09 1905.75 1005.64C1908.45 1000.18 1912.2 995.926 1917.02 992.865C1921.87 989.804 1927.54 988.274 1934.02 988.274C1937.96 988.274 1941.78 988.926 1945.48 990.229C1949.17 991.532 1952.49 993.577 1955.43 996.365C1958.37 999.153 1960.69 1002.77 1962.39 1007.23C1964.08 1011.65 1964.93 1017.03 1964.93 1023.37V1028.18H1909.43V1018H1951.61C1951.61 1014.43 1950.89 1011.26 1949.43 1008.5C1947.98 1005.71 1945.93 1003.52 1943.3 1001.91C1940.69 1000.3 1937.63 999.501 1934.11 999.501C1930.3 999.501 1926.96 1000.44 1924.11 1002.32C1921.3 1004.17 1919.11 1006.59 1917.57 1009.59C1916.05 1012.56 1915.3 1015.79 1915.3 1019.27V1027.23C1915.3 1031.9 1916.11 1035.87 1917.75 1039.14C1919.42 1042.41 1921.73 1044.91 1924.7 1046.64C1927.67 1048.33 1931.14 1049.18 1935.11 1049.18C1937.69 1049.18 1940.04 1048.82 1942.16 1048.09C1944.28 1047.33 1946.11 1046.21 1947.66 1044.73C1949.2 1043.24 1950.39 1041.41 1951.2 1039.23L1964.07 1041.55C1963.04 1045.33 1961.19 1048.65 1958.52 1051.5C1955.89 1054.32 1952.57 1056.52 1948.57 1058.09C1944.6 1059.64 1940.07 1060.41 1934.98 1060.41ZM1988.97 1059.87C1986.48 1059.87 1984.34 1058.99 1982.56 1057.23C1980.77 1055.44 1979.88 1053.29 1979.88 1050.77C1979.88 1048.29 1980.77 1046.17 1982.56 1044.41C1984.34 1042.62 1986.48 1041.73 1988.97 1041.73C1991.45 1041.73 1993.59 1042.62 1995.38 1044.41C1997.16 1046.17 1998.06 1048.29 1998.06 1050.77C1998.06 1052.44 1997.63 1053.97 1996.78 1055.37C1995.97 1056.73 1994.88 1057.82 1993.51 1058.64C1992.15 1059.46 1990.63 1059.87 1988.97 1059.87Z" fill="white"/>
<path d="M546.977 1059V965.911H605.341V978.001H561.023V1006.37H602.295V1018.41H561.023V1046.91H605.886V1059H546.977ZM633.739 989.183L649.148 1016.37L664.693 989.183H679.557L657.784 1024.09L679.739 1059H664.875L649.148 1032.91L633.466 1059H618.557L640.284 1024.09L618.83 989.183H633.739ZM693.511 1085.18V989.183H706.784V1000.5H707.92C708.708 999.047 709.845 997.365 711.33 995.456C712.814 993.547 714.875 991.88 717.511 990.456C720.148 989.001 723.633 988.274 727.966 988.274C733.602 988.274 738.633 989.698 743.057 992.547C747.481 995.395 750.951 999.501 753.466 1004.87C756.011 1010.23 757.284 1016.68 757.284 1024.23C757.284 1031.77 756.027 1038.24 753.511 1043.64C750.996 1049 747.542 1053.14 743.148 1056.05C738.754 1058.93 733.739 1060.37 728.102 1060.37C723.86 1060.37 720.39 1059.65 717.693 1058.23C715.027 1056.8 712.936 1055.14 711.42 1053.23C709.905 1051.32 708.739 1049.62 707.92 1048.14H707.102V1085.18H693.511ZM706.83 1024.09C706.83 1029 707.542 1033.3 708.966 1037C710.39 1040.7 712.451 1043.59 715.148 1045.68C717.845 1047.74 721.148 1048.77 725.057 1048.77C729.117 1048.77 732.511 1047.7 735.239 1045.55C737.966 1043.37 740.027 1040.41 741.42 1036.68C742.845 1032.96 743.557 1028.76 743.557 1024.09C743.557 1019.49 742.86 1015.35 741.466 1011.68C740.102 1008.02 738.042 1005.12 735.284 1003C732.557 1000.88 729.148 999.82 725.057 999.82C721.117 999.82 717.784 1000.83 715.057 1002.87C712.36 1004.9 710.314 1007.73 708.92 1011.37C707.527 1015 706.83 1019.24 706.83 1024.09ZM802.602 1060.41C795.723 1060.41 789.799 1058.94 784.83 1056C779.89 1053.03 776.072 1048.87 773.375 1043.5C770.708 1038.11 769.375 1031.79 769.375 1024.55C769.375 1017.4 770.708 1011.09 773.375 1005.64C776.072 1000.18 779.83 995.926 784.648 992.865C789.496 989.804 795.163 988.274 801.648 988.274C805.587 988.274 809.405 988.926 813.102 990.229C816.799 991.532 820.117 993.577 823.057 996.365C825.996 999.153 828.314 1002.77 830.011 1007.23C831.708 1011.65 832.557 1017.03 832.557 1023.37V1028.18H777.057V1018H819.239C819.239 1014.43 818.511 1011.26 817.057 1008.5C815.602 1005.71 813.557 1003.52 810.92 1001.91C808.314 1000.3 805.254 999.501 801.739 999.501C797.92 999.501 794.587 1000.44 791.739 1002.32C788.92 1004.17 786.739 1006.59 785.193 1009.59C783.678 1012.56 782.92 1015.79 782.92 1019.27V1027.23C782.92 1031.9 783.739 1035.87 785.375 1039.14C787.042 1042.41 789.36 1044.91 792.33 1046.64C795.299 1048.33 798.769 1049.18 802.739 1049.18C805.314 1049.18 807.663 1048.82 809.784 1048.09C811.905 1047.33 813.739 1046.21 815.284 1044.73C816.83 1043.24 818.011 1041.41 818.83 1039.23L831.693 1041.55C830.663 1045.33 828.814 1048.65 826.148 1051.5C823.511 1054.32 820.193 1056.52 816.193 1058.09C812.223 1059.64 807.693 1060.41 802.602 1060.41ZM847.636 1059V989.183H860.773V1000.27H861.5C862.773 996.517 865.015 993.562 868.227 991.411C871.47 989.229 875.136 988.138 879.227 988.138C880.076 988.138 881.076 988.168 882.227 988.229C883.409 988.289 884.333 988.365 885 988.456V1001.46C884.455 1001.3 883.485 1001.14 882.091 1000.96C880.697 1000.74 879.303 1000.64 877.909 1000.64C874.697 1000.64 871.833 1001.32 869.318 1002.68C866.833 1004.02 864.864 1005.88 863.409 1008.27C861.955 1010.64 861.227 1013.33 861.227 1016.37V1059H847.636ZM896.761 1059V989.183H910.352V1059H896.761ZM903.625 978.411C901.261 978.411 899.231 977.623 897.534 976.047C895.867 974.441 895.034 972.532 895.034 970.32C895.034 968.077 895.867 966.168 897.534 964.592C899.231 962.986 901.261 962.183 903.625 962.183C905.989 962.183 908.004 962.986 909.67 964.592C911.367 966.168 912.216 968.077 912.216 970.32C912.216 972.532 911.367 974.441 909.67 976.047C908.004 977.623 905.989 978.411 903.625 978.411ZM958.727 1060.41C951.848 1060.41 945.924 1058.94 940.955 1056C936.015 1053.03 932.197 1048.87 929.5 1043.5C926.833 1038.11 925.5 1031.79 925.5 1024.55C925.5 1017.4 926.833 1011.09 929.5 1005.64C932.197 1000.18 935.955 995.926 940.773 992.865C945.621 989.804 951.288 988.274 957.773 988.274C961.712 988.274 965.53 988.926 969.227 990.229C972.924 991.532 976.242 993.577 979.182 996.365C982.121 999.153 984.439 1002.77 986.136 1007.23C987.833 1011.65 988.682 1017.03 988.682 1023.37V1028.18H933.182V1018H975.364C975.364 1014.43 974.636 1011.26 973.182 1008.5C971.727 1005.71 969.682 1003.52 967.045 1001.91C964.439 1000.3 961.379 999.501 957.864 999.501C954.045 999.501 950.712 1000.44 947.864 1002.32C945.045 1004.17 942.864 1006.59 941.318 1009.59C939.803 1012.56 939.045 1015.79 939.045 1019.27V1027.23C939.045 1031.9 939.864 1035.87 941.5 1039.14C943.167 1042.41 945.485 1044.91 948.455 1046.64C951.424 1048.33 954.894 1049.18 958.864 1049.18C961.439 1049.18 963.788 1048.82 965.909 1048.09C968.03 1047.33 969.864 1046.21 971.409 1044.73C972.955 1043.24 974.136 1041.41 974.955 1039.23L987.818 1041.55C986.788 1045.33 984.939 1048.65 982.273 1051.5C979.636 1054.32 976.318 1056.52 972.318 1058.09C968.348 1059.64 963.818 1060.41 958.727 1060.41ZM1017.35 1017.55V1059H1003.76V989.183H1016.81V1000.55H1017.67C1019.28 996.85 1021.79 993.88 1025.22 991.638C1028.67 989.395 1033.02 988.274 1038.26 988.274C1043.02 988.274 1047.19 989.274 1050.76 991.274C1054.34 993.244 1057.11 996.183 1059.08 1000.09C1061.05 1004 1062.03 1008.83 1062.03 1014.59V1059H1048.44V1016.23C1048.44 1011.17 1047.13 1007.21 1044.49 1004.37C1041.85 1001.49 1038.23 1000.05 1033.62 1000.05C1030.47 1000.05 1027.67 1000.73 1025.22 1002.09C1022.79 1003.46 1020.87 1005.46 1019.44 1008.09C1018.05 1010.7 1017.35 1013.85 1017.35 1017.55ZM1109.67 1060.41C1102.91 1060.41 1097.09 1058.88 1092.22 1055.82C1087.37 1052.73 1083.64 1048.47 1081.03 1043.05C1078.43 1037.62 1077.12 1031.41 1077.12 1024.41C1077.12 1017.32 1078.46 1011.06 1081.12 1005.64C1083.79 1000.18 1087.55 995.926 1092.4 992.865C1097.25 989.804 1102.96 988.274 1109.53 988.274C1114.84 988.274 1119.56 989.259 1123.72 991.229C1127.87 993.168 1131.22 995.895 1133.76 999.411C1136.34 1002.93 1137.87 1007.03 1138.35 1011.73H1125.12C1124.4 1008.46 1122.73 1005.64 1120.12 1003.27C1117.55 1000.91 1114.09 999.729 1109.76 999.729C1105.97 999.729 1102.66 1000.73 1099.81 1002.73C1096.99 1004.7 1094.79 1007.52 1093.22 1011.18C1091.64 1014.82 1090.85 1019.12 1090.85 1024.09C1090.85 1029.18 1091.63 1033.58 1093.17 1037.27C1094.72 1040.97 1096.9 1043.83 1099.72 1045.87C1102.56 1047.9 1105.91 1048.91 1109.76 1048.91C1112.34 1048.91 1114.67 1048.44 1116.76 1047.5C1118.88 1046.53 1120.66 1045.15 1122.08 1043.37C1123.53 1041.58 1124.55 1039.43 1125.12 1036.91H1138.35C1137.87 1041.43 1136.4 1045.46 1133.94 1049C1131.49 1052.55 1128.2 1055.33 1124.08 1057.37C1119.99 1059.4 1115.19 1060.41 1109.67 1060.41ZM1182.98 1060.41C1176.1 1060.41 1170.17 1058.94 1165.2 1056C1160.27 1053.03 1156.45 1048.87 1153.75 1043.5C1151.08 1038.11 1149.75 1031.79 1149.75 1024.55C1149.75 1017.4 1151.08 1011.09 1153.75 1005.64C1156.45 1000.18 1160.2 995.926 1165.02 992.865C1169.87 989.804 1175.54 988.274 1182.02 988.274C1185.96 988.274 1189.78 988.926 1193.48 990.229C1197.17 991.532 1200.49 993.577 1203.43 996.365C1206.37 999.153 1208.69 1002.77 1210.39 1007.23C1212.08 1011.65 1212.93 1017.03 1212.93 1023.37V1028.18H1157.43V1018H1199.61C1199.61 1014.43 1198.89 1011.26 1197.43 1008.5C1195.98 1005.71 1193.93 1003.52 1191.3 1001.91C1188.69 1000.3 1185.63 999.501 1182.11 999.501C1178.3 999.501 1174.96 1000.44 1172.11 1002.32C1169.3 1004.17 1167.11 1006.59 1165.57 1009.59C1164.05 1012.56 1163.3 1015.79 1163.3 1019.27V1027.23C1163.3 1031.9 1164.11 1035.87 1165.75 1039.14C1167.42 1042.41 1169.73 1044.91 1172.7 1046.64C1175.67 1048.33 1179.14 1049.18 1183.11 1049.18C1185.69 1049.18 1188.04 1048.82 1190.16 1048.09C1192.28 1047.33 1194.11 1046.21 1195.66 1044.73C1197.2 1043.24 1198.39 1041.41 1199.2 1039.23L1212.07 1041.55C1211.04 1045.33 1209.19 1048.65 1206.52 1051.5C1203.89 1054.32 1200.57 1056.52 1196.57 1058.09C1192.6 1059.64 1188.07 1060.41 1182.98 1060.41ZM1236.97 1059.87C1234.48 1059.87 1232.34 1058.99 1230.56 1057.23C1228.77 1055.44 1227.88 1053.29 1227.88 1050.77C1227.88 1048.29 1228.77 1046.17 1230.56 1044.41C1232.34 1042.62 1234.48 1041.73 1236.97 1041.73C1239.45 1041.73 1241.59 1042.62 1243.38 1044.41C1245.16 1046.17 1246.06 1048.29 1246.06 1050.77C1246.06 1052.44 1245.63 1053.97 1244.78 1055.37C1243.97 1056.73 1242.88 1057.82 1241.51 1058.64C1240.15 1059.46 1238.63 1059.87 1236.97 1059.87Z" fill="#2D9700"/>
<defs>
<linearGradient id="paint0_linear_1726_10" x1="842.695" y1="739.806" x2="1331.31" y2="251.196" gradientUnits="userSpaceOnUse">
<stop stop-color="#88AD00"/>
<stop offset="0.107196" stop-color="#7AA900"/>
<stop offset="0.395" stop-color="#3D9A00"/>
<stop offset="0.99747" stop-color="#2C9600"/>
</linearGradient>
<linearGradient id="paint1_linear_1726_10" x1="842.534" y1="495.657" x2="964.844" y2="373.348" gradientUnits="userSpaceOnUse">
<stop offset="0.0001"/>
<stop offset="1" stop-opacity="0"/>
</linearGradient>
<linearGradient id="paint2_linear_1726_10" x1="1331.47" y1="495.347" x2="1209.16" y2="617.657" gradientUnits="userSpaceOnUse">
<stop offset="0.0001"/>
<stop offset="1" stop-opacity="0"/>
</linearGradient>
<linearGradient id="paint3_linear_1726_10" x1="842.534" y1="495.657" x2="964.844" y2="373.348" gradientUnits="userSpaceOnUse">
<stop offset="0.0001"/>
<stop offset="0.04796" stop-opacity="0.89904"/>
<stop offset="1" stop-opacity="0"/>
</linearGradient>
<linearGradient id="paint4_linear_1726_10" x1="1331.47" y1="495.347" x2="1209.16" y2="617.657" gradientUnits="userSpaceOnUse">
<stop offset="0.0001"/>
<stop offset="1" stop-opacity="0"/>
</linearGradient>
</defs>
</svg>
